<?xml version="1.0" encoding="UTF-8" standalone="no"?>
<svg
   version="1.1"
   width="329.76672"
   height="296.94427"
   id="svg43"
   xmlns="http://www.w3.org/2000/svg"
   xmlns:svg="http://www.w3.org/2000/svg">
  <defs
     id="defs43" />
  <circle
     style="fill:none;stroke:none;stroke-width:3.433;paint-order:stroke markers fill"
     id="path47"
     cx="296.86438"
     cy="-119.6095"
     r="281.50375" />
  <g
     id="g97"
     transform="translate(-911.70703,-494.45111)">
    <path
       d="m 961.84136,494.45112 c 4,2 4,2 5,3 0.0409,2.33298 0.0424,4.66706 0,7 -1.65,0.66 -3.3,1.32 -5,2 0,-3.96 0,-7.92 0,-12 z"
       fill="#f4f4f4"
       id="path92" />
    <rect
       style="fill:none;stroke:#000000;stroke-width:0;stroke-dasharray:none;paint-order:stroke markers fill"
       id="rect92"
       width="208.62308"
       height="168.42964"
       x="947.41675"
       y="581.84784" />
    <rect
       style="fill:#97d1c8;fill-opacity:1;stroke:#4d4d4d;stroke-width:14;stroke-dasharray:none;paint-order:stroke markers fill"
       id="rect93"
       width="300.76538"
       height="228.85001"
       x="918.70703"
       y="555.54541"
       rx="30"
       ry="20" />
    <rect
       style="fill:#e6e6e6;fill-opacity:1;stroke:#4d4d4d;stroke-width:14;stroke-dasharray:none;paint-order:stroke markers fill"
       id="rect94"
       width="297.66699"
       height="41.098"
       x="920.25623"
       y="551.34448"
       rx="30"
       ry="30" />
    <path
       id="path94"
       style="fill:#e6e6e6;fill-opacity:1;stroke:#4d4d4d;stroke-width:14;stroke-linecap:round;stroke-linejoin:round;stroke-dasharray:none;stroke-opacity:1;paint-order:stroke markers fill"
       d="m 1168.4737,651.02344 c -11.08,0 -20,8.92 -20,20 0,11.08 8.92,20 20,20 h 11 9 41 c 2.77,0 5,-2.23 5,-5 v -30 c 0,-2.77 -2.23,-5 -5,-5 h -41 -9 z" />
    <circle
       style="fill:#4d4d4d;fill-opacity:1;stroke:none;stroke-width:14;stroke-linecap:round;stroke-linejoin:round;stroke-dasharray:none;stroke-opacity:1;paint-order:stroke markers fill"
       id="circle94"
       cy="670.53485"
       cx="1167.9224"
       r="11.882558" />
    <g
       id="g95"
       transform="translate(-0.5075188,-0.16917293)">
      <circle
         style="fill:none;fill-opacity:1;stroke:#4d4d4d;stroke-width:7;stroke-linecap:round;stroke-linejoin:round;stroke-dasharray:none;stroke-opacity:1;paint-order:stroke markers fill"
         id="circle95"
         cx="1085.152"
         cy="514.4549"
         r="12.562299" />
      <path
         style="fill:#4d4d4d;fill-opacity:1;stroke:#4d4d4d;stroke-width:9.2;stroke-linecap:round;stroke-linejoin:round;stroke-dasharray:none;stroke-opacity:1;paint-order:stroke markers fill"
         d="m 1075.0008,523.57092 -30.5029,23.03672"
         id="path95" />
    </g>
    <g
       id="g96"
       transform="matrix(-1,0,0,1,2138.9129,0)">
      <circle
         style="fill:none;fill-opacity:1;stroke:#4d4d4d;stroke-width:7;stroke-linecap:round;stroke-linejoin:round;stroke-dasharray:none;stroke-opacity:1;paint-order:stroke markers fill"
         id="circle96"
         cx="1085.152"
         cy="514.4549"
         r="12.562299" />
      <path
         style="fill:#4d4d4d;fill-opacity:1;stroke:#4d4d4d;stroke-width:9.2;stroke-linecap:round;stroke-linejoin:round;stroke-dasharray:none;stroke-opacity:1;paint-order:stroke markers fill"
         d="m 1075.0008,523.57092 -30.5029,23.03672"
         id="path96" />
    </g>
  </g>
</svg>
