<?xml version="1.0" encoding="UTF-8" standalone="no"?>
<svg
   version="1.1"
   width="329.76672"
   height="414.12381"
   id="svg43"
   sodipodi:docname="Wallet.svg"
   xmlns:inkscape="http://www.inkscape.org/namespaces/inkscape"
   xmlns:sodipodi="http://sodipodi.sourceforge.net/DTD/sodipodi-0.dtd"
   xmlns="http://www.w3.org/2000/svg"
   xmlns:svg="http://www.w3.org/2000/svg">
  <defs
     id="defs43">
    <marker
       style="overflow:visible"
       id="DartArrow"
       refX="0"
       refY="0"
       orient="auto-start-reverse"
       inkscape:stockid="Dart arrow"
       markerWidth="1"
       markerHeight="1"
       viewBox="0 0 1 1"
       inkscape:isstock="true"
       inkscape:collect="always"
       preserveAspectRatio="xMidYMid">
      <path
         style="fill:context-stroke;fill-rule:evenodd;stroke:none"
         d="M 0,0 5,-5 -12.5,0 5,5 Z"
         transform="scale(-0.5)"
         id="path90" />
    </marker>
    <marker
       style="overflow:visible"
       id="ArrowTriangleStylized"
       refX="0"
       refY="0"
       orient="auto-start-reverse"
       inkscape:stockid="Stylized triangle arrow"
       markerWidth="1"
       markerHeight="1"
       viewBox="0 0 1 1"
       inkscape:isstock="true"
       inkscape:collect="always"
       preserveAspectRatio="xMidYMid">
      <path
         transform="scale(0.5)"
         style="fill:context-stroke;fill-rule:evenodd;stroke:context-stroke;stroke-width:1pt"
         d="m 6,0 c -3,1 -7,3 -9,5 0,0 0,-4 2,-5 -2,-1 -2,-5 -2,-5 2,2 6,4 9,5 z"
         id="path86" />
    </marker>
  </defs>
  <sodipodi:namedview
     id="namedview43"
     pagecolor="#ffffff"
     bordercolor="#000000"
     borderopacity="0.25"
     inkscape:showpageshadow="2"
     inkscape:pageopacity="0.0"
     inkscape:pagecheckerboard="0"
     inkscape:deskcolor="#d1d1d1"
     showguides="true">
    <sodipodi:guide
       position="428.93337,-88.84559"
       orientation="0,-1"
       id="guide47"
       inkscape:locked="false" />
    <sodipodi:guide
       position="155.11067,199.37858"
       orientation="1,0"
       id="guide48"
       inkscape:locked="false" />
    <sodipodi:guide
       position="152.05237,118.26768"
       orientation="0,-1"
       id="guide76"
       inkscape:locked="false" />
    <inkscape:page
       x="0"
       y="0"
       width="329.76672"
       height="414.12381"
       id="page2"
       margin="0"
       bleed="0" />
  </sodipodi:namedview>
  <path
     d="m 46.134329,88.179493 c 1.32,0 2.64,0 4,0 0,0.66 0,1.32 0,2 0.88688,0.0619 1.77375,0.12375 2.6875,0.1875 4.20406,1.03119 5.65861,2.42141 8.3125,5.8125 0.93549,2.34114 1.46502,4.519637 2,6.999997 -5.35913,0.43928 -5.35913,0.43928 -8,0 -1.875,-2.4375 -1.875,-2.4375 -3,-4.999997 -0.66,-0.33 -1.32,-0.66 -2,-1 0,4.289997 0,8.579997 0,12.999997 1.65,0.33 3.3,0.66 5,1 3.57333,2.10196 5.68895,3.53343 8,7 0.69921,4.7969 0.71482,8.7746 -1.75,13 -3.78275,3.36245 -6.16767,4.28235 -11.25,4 0,2.31 0,4.62 0,7 -1.32,0 -2.64,0 -4,0 -0.33,-1.98 -0.66,-3.96 -1,-6 -0.60328,-0.14695 -1.20656,-0.2939 -1.82812,-0.44531 -4.31609,-1.21129 -6.68562,-2.00913 -9.73438,-5.42969 -1.41247,-3.0706 -1.82794,-4.80627 -1.4375,-8.125 2.64,0 5.28,0 8,0 0.2475,0.78375 0.495,1.5675 0.75,2.375 1.13704,3.08125 1.13704,3.08125 5.25,4.625 -0.33,-4.29 -0.66,-8.58 -1,-13 -1.42312,-0.55687 -2.84625,-1.11375 -4.3125,-1.6875 -2.8791,-1.30374 -4.56223,-2.17963 -6.75,-4.5 -1.52169,-4.56509 -2.19252,-9.17973 -0.0586,-13.656247 3.04244,-4.09675 6.3224,-5.04886 11.12109,-6.15625 0.33,-0.66 0.66,-1.32 1,-2 z"
     fill="#070707"
     id="path10" />
  <path
     d="m 149.40247,46.999993 c 3.63,0 7.26,0 11,0 0,1.65 0,3.3 0,5 -2,2 -2,2 -4.375,2.375 -3.4312,-0.49016 -4.5363,-1.66744 -6.625,-4.375 0,-0.99 0,-1.98 0,-3 z"
     fill="#f0f0f0"
     id="path28" />
  <circle
     style="fill:none;stroke:none;stroke-width:3.433;paint-order:stroke markers fill"
     id="path47"
     cx="296.86438"
     cy="363.5253"
     r="281.50375" />
  <g
     id="g91"
     transform="translate(-911.70703,-377.27163)">
    <path
       d="m 961.84136,494.45112 c 4,2 4,2 5,3 0.0409,2.33298 0.0424,4.66706 0,7 -1.65,0.66 -3.3,1.32 -5,2 0,-3.96 0,-7.92 0,-12 z"
       fill="#f4f4f4"
       id="path32" />
    <rect
       style="fill:none;stroke:#000000;stroke-width:0;stroke-dasharray:none;paint-order:stroke markers fill"
       id="rect63"
       width="208.62308"
       height="168.42964"
       x="947.41675"
       y="581.84784" />
    <rect
       style="fill:#97d1c8;fill-opacity:1;stroke:#4d4d4d;stroke-width:14;stroke-dasharray:none;paint-order:stroke markers fill"
       id="rect64"
       width="300.76538"
       height="228.85001"
       x="918.70703"
       y="555.54541"
       rx="30"
       ry="20" />
    <rect
       style="fill:#e6e6e6;fill-opacity:1;stroke:#4d4d4d;stroke-width:14;stroke-dasharray:none;paint-order:stroke markers fill"
       id="rect65"
       width="297.66699"
       height="41.098"
       x="920.25623"
       y="551.34448"
       rx="30"
       ry="30" />
    <path
       id="rect76"
       style="fill:#e6e6e6;fill-opacity:1;stroke:#4d4d4d;stroke-width:14;stroke-linecap:round;stroke-linejoin:round;stroke-dasharray:none;stroke-opacity:1;paint-order:stroke markers fill"
       d="m 1168.4737,651.02344 c -11.08,0 -20,8.92 -20,20 0,11.08 8.92,20 20,20 h 11 9 41 c 2.77,0 5,-2.23 5,-5 v -30 c 0,-2.77 -2.23,-5 -5,-5 h -41 -9 z" />
    <circle
       style="fill:#4d4d4d;fill-opacity:1;stroke:none;stroke-width:14;stroke-linecap:round;stroke-linejoin:round;stroke-dasharray:none;stroke-opacity:1;paint-order:stroke markers fill"
       id="path78"
       cy="670.53485"
       cx="1167.9224"
       r="11.882558" />
    <g
       id="g83"
       transform="translate(-0.5075188,-0.16917293)">
      <circle
         style="fill:none;fill-opacity:1;stroke:#4d4d4d;stroke-width:7;stroke-linecap:round;stroke-linejoin:round;stroke-dasharray:none;stroke-opacity:1;paint-order:stroke markers fill"
         id="circle80"
         cx="1085.152"
         cy="514.4549"
         r="12.562299" />
      <path
         style="fill:#4d4d4d;fill-opacity:1;stroke:#4d4d4d;stroke-width:9.2;stroke-linecap:round;stroke-linejoin:round;stroke-dasharray:none;stroke-opacity:1;paint-order:stroke markers fill"
         d="m 1075.0008,523.57092 -30.5029,23.03672"
         id="path81"
         sodipodi:nodetypes="cc" />
    </g>
    <g
       id="g84"
       transform="matrix(-1,0,0,1,2138.9129,0)">
      <circle
         style="fill:none;fill-opacity:1;stroke:#4d4d4d;stroke-width:7;stroke-linecap:round;stroke-linejoin:round;stroke-dasharray:none;stroke-opacity:1;paint-order:stroke markers fill"
         id="circle83"
         cx="1085.152"
         cy="514.4549"
         r="12.562299" />
      <path
         style="fill:#4d4d4d;fill-opacity:1;stroke:#4d4d4d;stroke-width:9.2;stroke-linecap:round;stroke-linejoin:round;stroke-dasharray:none;stroke-opacity:1;paint-order:stroke markers fill"
         d="m 1075.0008,523.57092 -30.5029,23.03672"
         id="path83"
         sodipodi:nodetypes="cc" />
    </g>
  </g>
  <g
     id="g92"
     transform="translate(-911.70703,-377.27163)">
    <path
       d="m 1052.1095,377.27162 c 11.88,0 23.76,0 36,0 0,2.64 0,5.28 0,8 -2.97,0 -5.94,0 -9,0 0,0.99 0,1.98 0,3 2.97,0 5.94,0 9,0 0,2.64 0,5.28 0,8 -2.97,0 -5.94,0 -9,0 0.1237,1.57781 0.1237,1.57781 0.25,3.1875 -0.2899,4.42003 -1.0225,5.84666 -4.25,8.8125 -2.6446,0.63281 -2.6446,0.63281 -5,1 0.4705,0.60328 0.941,1.20656 1.4258,1.82813 0.6226,0.79921 1.2452,1.59843 1.8867,2.42187 0.6149,0.78891 1.2297,1.57781 1.8633,2.39063 1.628,2.1056 3.2335,4.22546 4.8242,6.35937 -2.97,2.475 -2.97,2.475 -6,5 -6.841,-7.32022 -12.9902,-14.99523 -19,-23 1.5194,-3.36748 2.521,-4.6084 6,-6 0.8353,0.99 0.8353,0.99 1.6875,2 2.1531,2.25492 2.1531,2.25492 5.0625,2.25 1.1137,-0.12375 1.1137,-0.12375 2.25,-0.25 0.66,-1.98 1.32,-3.96 2,-6 -6.6,0 -13.2,0 -20,0 0,-2.64 0,-5.28 0,-8 6.6,0 13.2,0 20,0 0,-0.99 0,-1.98 0,-3 -6.6,0 -13.2,0 -20,0 0,-2.64 0,-5.28 0,-8 z"
       fill="#020202"
       id="path11" />
    <path
       d="m 1184.6691,473.53384 c -0.66,2.31 -1.32,4.62 -2,7 -0.99,-0.33 -1.98,-0.66 -3,-1 -4.8088,-0.63038 -7.958,-0.77594 -11.9375,2.1875 -2.3774,2.99656 -2.3774,2.99656 -4.0625,7.8125 5.28,0 10.56,0 16,0 -0.66,1.32 -1.32,2.64 -2,4 -4.95,0 -9.9,0 -15,0 0,1.32 0,2.64 0,4 4.29,0 8.58,0 13,0 -0.33,1.32 -0.66,2.64 -1,4 -3.63,0 -7.26,0 -11,0 2.2867,5.03735 2.2867,5.03735 6,9 4.8775,0.84944 9.5901,0.27611 14,-2 0,2.97 0,5.94 0,9 -12.684,3.03111 -12.684,3.03111 -19,0 -5.3507,-3.3913 -8.0767,-7.00384 -10,-13 0,-0.99 0,-1.98 0,-3 -1.65,0 -3.3,0 -5,0 0.33,-1.32 0.66,-2.64 1,-4 0.99,0 1.98,0 3,0 0,-1.32 0,-2.64 0,-4 -1.32,0 -2.64,0 -4,0 0.3125,-1.9375 0.3125,-1.9375 1,-4 0.99,-0.33 1.98,-0.66 3,-1 0.9932,-2.1311 0.9932,-2.1311 1.75,-4.6875 1.9976,-5.289 4.3517,-8.44347 9.25,-11.3125 6.4613,-2.83505 14.0743,-2.95047 20,1 z"
       fill="#040404"
       id="path12" />
    <path
       d="m 957.84136,474.45112 c 0,3.63 0,7.26 0,11 -4,-1 -4,-1 -6,-3 -0.37447,-2.92091 -0.43745,-4.3959 1.3125,-6.8125 1.6875,-1.1875 1.6875,-1.1875 4.6875,-1.1875 z"
       fill="#e3e3e3"
       id="path29" />
    <path
       style="fill:none;fill-opacity:1;stroke:#4d4d4d;stroke-width:6;stroke-linecap:round;stroke-linejoin:round;stroke-dasharray:none;stroke-opacity:1;marker-end:url(#ArrowTriangleStylized);paint-order:stroke markers fill"
       d="m 981.60828,462.85714 c 18.35568,-40.64345 32.78732,6.76691 33.57612,48.72181"
       id="path87"
       sodipodi:nodetypes="cc" />
    <path
       style="fill:none;fill-opacity:1;stroke:#4d4d4d;stroke-width:6;stroke-linecap:round;stroke-linejoin:round;stroke-dasharray:none;stroke-opacity:1;marker-end:url(#DartArrow);paint-order:stroke markers fill"
       d="m 1071.7664,434.64662 -1.3534,28.42104"
       id="path89"
       sodipodi:nodetypes="cc" />
    <path
       style="fill:none;fill-opacity:1;stroke:#4d4d4d;stroke-width:6;stroke-linecap:round;stroke-linejoin:round;stroke-dasharray:none;stroke-opacity:1;marker-end:url(#ArrowTriangleStylized);paint-order:stroke markers fill"
       d="m 1152.2092,462.85714 c -18.3556,-40.64345 -32.7873,6.76691 -33.5761,48.72181"
       id="path91"
       sodipodi:nodetypes="cc" />
  </g>
</svg>
