<?xml version="1.0" encoding="UTF-8"?>
<svg version="1.1" xmlns="http://www.w3.org/2000/svg" width="1920" height="1080">
<path d="M0 0 C633.6 0 1267.2 0 1920 0 C1920 356.4 1920 712.8 1920 1080 C1286.4 1080 652.8 1080 0 1080 C0 723.6 0 367.2 0 0 Z " fill="#FEFEFE" transform="translate(0,0)"/>
<path d="M0 0 C4.20142002 1.64761569 6.99528597 3.6485882 10 7 C10.61875 6.195625 11.2375 5.39125 11.875 4.5625 C14.10154316 1.8775509 14.82658276 1.14537913 18.20703125 0.7265625 C25.28722953 0.45057276 25.28722953 0.45057276 29 3.3125 C32.45218695 7.95137621 33.59539795 10.1452535 33 16 C31.3562347 19.11141288 29.96963114 21.28893717 27.125 23.375 C24.36226686 24.18756857 21.86228888 24.13010404 19 24 C18.731875 24.804375 18.46375 25.60875 18.1875 26.4375 C17.795625 27.283125 17.40375 28.12875 17 29 C15.515 29.495 15.515 29.495 14 30 C14 30.66 14 31.32 14 32 C14.89900528 31.99111755 15.79801056 31.98223511 16.72425842 31.9730835 C25.2132404 31.8928012 33.70209412 31.83196635 42.19136906 31.79275131 C46.55539766 31.77191233 50.9191115 31.7436627 55.28295898 31.69824219 C59.49752822 31.65465195 63.71179546 31.63083515 67.9265728 31.62049103 C69.53129261 31.61312321 71.13599664 31.59873548 72.74058723 31.57707977 C74.99546628 31.54786914 77.24911137 31.54405114 79.50415039 31.54589844 C80.78544327 31.53701599 82.06673615 31.52813354 83.38685608 31.51898193 C88.50783737 32.20073848 92.11296444 34.03959654 95.76017761 37.82861328 C98.90927684 42.95452574 99.68881968 46.90666333 99.48828125 52.875 C99.47766914 54.08990112 99.47766914 54.08990112 99.46684265 55.3293457 C99.4391089 57.88721641 99.37641784 60.44280406 99.3125 63 C99.28738963 64.74606188 99.26458128 66.49215846 99.24414062 68.23828125 C99.18935231 72.49305178 99.1032336 76.74614042 99 81 C100.10601562 81.11472656 101.21203125 81.22945313 102.3515625 81.34765625 C106 82 106 82 108.375 84.4375 C111.69540898 89.67352954 111.22013107 94.14927193 111.25 100.25 C111.2809375 101.80654297 111.2809375 101.80654297 111.3125 103.39453125 C111.34108723 108.99048073 111.28034088 113.22432474 108 118 C104.61101532 120.60691129 103.37265387 121 99 121 C99.01110306 121.58358276 99.02220612 122.16716553 99.03364563 122.76843262 C99.14466803 128.86825177 99.21984421 134.96778174 99.2746582 141.06835938 C99.29972943 143.34191557 99.3337953 145.61539174 99.37719727 147.88867188 C99.43817275 151.16556594 99.4662846 154.44139011 99.48828125 157.71875 C99.51408768 158.72740112 99.5398941 159.73605225 99.56648254 160.77526855 C99.56911258 167.46355718 98.32996041 171.83031823 94 177 C89.16770999 181.48712644 85.75162045 182.12473338 79.27044678 182.14717102 C78.58270211 182.15084771 77.89495745 182.1545244 77.18637204 182.1583125 C74.87651915 182.16934584 72.56671124 182.17319257 70.25683594 182.17700195 C68.60274615 182.18326686 66.94865776 182.18991369 65.29457092 182.19691467 C59.85784892 182.21795392 54.42112663 182.22831681 48.984375 182.23828125 C47.11264277 182.24232883 45.2409107 182.24644576 43.36917877 182.25063133 C34.57578577 182.26968257 25.78240117 182.28391384 16.9889915 182.2922433 C6.83916221 182.3020164 -3.31044904 182.32833808 -13.4602015 182.36874419 C-21.30574359 182.39890526 -29.15122318 182.41371216 -36.99682212 182.41702431 C-41.68247127 182.41937479 -46.36788747 182.42833491 -51.05347443 182.45348549 C-55.46285733 182.47677112 -59.87185397 182.48099753 -64.28128242 182.47072411 C-65.89736529 182.47022875 -67.5134672 182.47654904 -69.12949181 182.49028015 C-71.34095923 182.50801545 -73.55104281 182.5008865 -75.76251221 182.48774719 C-76.99842731 182.49013555 -78.23434242 182.4925239 -79.5077095 182.49498463 C-84.83962391 181.73925836 -88.5239156 179.51597857 -92.3125 175.625 C-96.51081368 169.09428983 -96.30717928 162.69068871 -96.32226562 155.1706543 C-96.33219543 153.98454559 -96.34212524 152.79843689 -96.35235596 151.5763855 C-96.37649662 148.33448089 -96.39146876 145.09272018 -96.40037727 141.8507421 C-96.40625812 139.82141576 -96.41447122 137.79211153 -96.42338562 135.7627964 C-96.45070065 129.40202024 -96.47005178 123.04129516 -96.4777894 116.68046445 C-96.48674725 109.35869412 -96.52183984 102.03767121 -96.57979059 94.71612805 C-96.62313028 89.04201272 -96.64320348 83.3681069 -96.64587164 77.69382793 C-96.64795998 74.3113512 -96.65960523 70.92957868 -96.69551086 67.54727745 C-96.72971134 63.77012198 -96.72585407 59.99477777 -96.71289062 56.2175293 C-96.73132019 55.10917221 -96.74974976 54.00081512 -96.76873779 52.85887146 C-96.68861238 45.38721294 -95.07513115 40.57022649 -90 35 C-86.06543197 31.68732464 -82.85445143 31.63505678 -77.79467773 31.6628418 C-76.73520432 31.66201096 -76.73520432 31.66201096 -75.65432739 31.66116333 C-74.12764009 31.66142237 -72.60094256 31.66826456 -71.0743084 31.68100548 C-68.65718119 31.69941997 -66.24091828 31.69670444 -63.82374573 31.6879425 C-56.95438182 31.66615209 -50.08535289 31.67713602 -43.21606445 31.71508789 C-39.0084493 31.73686054 -34.8016871 31.72967584 -30.59410286 31.7046299 C-28.99251929 31.70103464 -27.39086914 31.70870872 -25.78939629 31.72788048 C-23.55061256 31.75417129 -21.31472593 31.74380618 -19.07592773 31.7253418 C-17.80305405 31.72994919 -16.53018036 31.73455658 -15.21873474 31.73930359 C-11.71026148 31.28375305 -11.71026148 31.28375305 -9.55775452 27.95466614 C-8.78666603 26.4921064 -8.78666603 26.4921064 -8 25 C-8.969375 24.21625 -9.93875 23.4325 -10.9375 22.625 C-13.66831118 20.41711011 -14.86663969 19.18309647 -15.2734375 15.57421875 C-15.54949855 7.7277143 -15.54949855 7.7277143 -12.6875 3.9375 C-7.99861116 0.55713828 -5.85055894 -0.49581008 0 0 Z " fill="#97D1C8" transform="translate(390,421)"/>
<path d="M0 0 C4.20142002 1.64761569 6.99528597 3.6485882 10 7 C10.61875 6.195625 11.2375 5.39125 11.875 4.5625 C14.10154316 1.8775509 14.82658276 1.14537913 18.20703125 0.7265625 C25.28722953 0.45057276 25.28722953 0.45057276 29 3.3125 C32.45218695 7.95137621 33.59539795 10.1452535 33 16 C31.3562347 19.11141288 29.96963114 21.28893717 27.125 23.375 C24.36226686 24.18756857 21.86228888 24.13010404 19 24 C18.731875 24.804375 18.46375 25.60875 18.1875 26.4375 C17.795625 27.283125 17.40375 28.12875 17 29 C15.515 29.495 15.515 29.495 14 30 C14 30.66 14 31.32 14 32 C14.89900528 31.99111755 15.79801056 31.98223511 16.72425842 31.9730835 C25.2132404 31.8928012 33.70209412 31.83196635 42.19136906 31.79275131 C46.55539766 31.77191233 50.9191115 31.7436627 55.28295898 31.69824219 C59.49752822 31.65465195 63.71179546 31.63083515 67.9265728 31.62049103 C69.53129261 31.61312321 71.13599664 31.59873548 72.74058723 31.57707977 C74.99546628 31.54786914 77.24911137 31.54405114 79.50415039 31.54589844 C80.78544327 31.53701599 82.06673615 31.52813354 83.38685608 31.51898193 C88.50783737 32.20073848 92.11296444 34.03959654 95.76017761 37.82861328 C98.90927684 42.95452574 99.68881968 46.90666333 99.48828125 52.875 C99.47766914 54.08990112 99.47766914 54.08990112 99.46684265 55.3293457 C99.4391089 57.88721641 99.37641784 60.44280406 99.3125 63 C99.28738963 64.74606188 99.26458128 66.49215846 99.24414062 68.23828125 C99.18935231 72.49305178 99.1032336 76.74614042 99 81 C100.10601563 81.11472656 101.21203125 81.22945313 102.3515625 81.34765625 C106 82 106 82 108.375 84.4375 C111.69540898 89.67352954 111.22013107 94.14927193 111.25 100.25 C111.2809375 101.80654297 111.2809375 101.80654297 111.3125 103.39453125 C111.34108723 108.99048073 111.28034088 113.22432474 108 118 C104.61101532 120.60691129 103.37265387 121 99 121 C99.01110306 121.58358276 99.02220612 122.16716553 99.03364563 122.76843262 C99.14466803 128.86825177 99.21984421 134.96778174 99.2746582 141.06835938 C99.29972943 143.34191557 99.3337953 145.61539174 99.37719727 147.88867188 C99.43817275 151.16556594 99.4662846 154.44139011 99.48828125 157.71875 C99.51408768 158.72740112 99.5398941 159.73605225 99.56648254 160.77526855 C99.56911258 167.46355718 98.32996041 171.83031823 94 177 C89.16770999 181.48712644 85.75162045 182.12473338 79.27044678 182.14717102 C78.58270211 182.15084771 77.89495745 182.1545244 77.18637204 182.1583125 C74.87651915 182.16934584 72.56671124 182.17319257 70.25683594 182.17700195 C68.60274615 182.18326686 66.94865776 182.18991369 65.29457092 182.19691467 C59.85784892 182.21795392 54.42112663 182.22831681 48.984375 182.23828125 C47.11264277 182.24232883 45.2409107 182.24644576 43.36917877 182.25063133 C34.57578577 182.26968257 25.78240117 182.28391384 16.9889915 182.2922433 C6.83916221 182.3020164 -3.31044904 182.32833808 -13.4602015 182.36874419 C-21.30574359 182.39890526 -29.15122318 182.41371216 -36.99682212 182.41702431 C-41.68247127 182.41937479 -46.36788747 182.42833491 -51.05347443 182.45348549 C-55.46285733 182.47677112 -59.87185397 182.48099753 -64.28128242 182.47072411 C-65.89736529 182.47022875 -67.5134672 182.47654904 -69.12949181 182.49028015 C-71.34095923 182.50801545 -73.55104281 182.5008865 -75.76251221 182.48774719 C-76.99842731 182.49013555 -78.23434242 182.4925239 -79.5077095 182.49498463 C-84.83962391 181.73925836 -88.5239156 179.51597857 -92.3125 175.625 C-96.51081368 169.09428983 -96.30717928 162.69068871 -96.32226562 155.1706543 C-96.33219543 153.98454559 -96.34212524 152.79843689 -96.35235596 151.5763855 C-96.37649662 148.33448089 -96.39146876 145.09272018 -96.40037727 141.8507421 C-96.40625812 139.82141576 -96.41447122 137.79211153 -96.42338562 135.7627964 C-96.45070065 129.40202024 -96.47005178 123.04129516 -96.4777894 116.68046445 C-96.48674725 109.35869412 -96.52183984 102.03767121 -96.57979059 94.71612805 C-96.62313028 89.04201272 -96.64320348 83.3681069 -96.64587164 77.69382793 C-96.64795998 74.3113512 -96.65960523 70.92957868 -96.69551086 67.54727745 C-96.72971134 63.77012198 -96.72585407 59.99477777 -96.71289062 56.2175293 C-96.73132019 55.10917221 -96.74974976 54.00081512 -96.76873779 52.85887146 C-96.68861238 45.38721294 -95.07513115 40.57022649 -90 35 C-86.06543197 31.68732464 -82.85445143 31.63505678 -77.79467773 31.6628418 C-76.73520432 31.66201096 -76.73520432 31.66201096 -75.65432739 31.66116333 C-74.12764009 31.66142237 -72.60094256 31.66826456 -71.0743084 31.68100548 C-68.65718119 31.69941997 -66.24091828 31.69670444 -63.82374573 31.6879425 C-56.95438182 31.66615209 -50.08535289 31.67713602 -43.21606445 31.71508789 C-39.0084493 31.73686054 -34.8016871 31.72967584 -30.59410286 31.7046299 C-28.99251929 31.70103464 -27.39086914 31.70870872 -25.78939629 31.72788048 C-23.55061256 31.75417129 -21.31472593 31.74380618 -19.07592773 31.7253418 C-17.80305405 31.72994919 -16.53018036 31.73455658 -15.21873474 31.73930359 C-11.71026148 31.28375305 -11.71026148 31.28375305 -9.55775452 27.95466614 C-8.78666603 26.4921064 -8.78666603 26.4921064 -8 25 C-8.969375 24.21625 -9.93875 23.4325 -10.9375 22.625 C-13.66831118 20.41711011 -14.86663969 19.18309647 -15.2734375 15.57421875 C-15.54949855 7.7277143 -15.54949855 7.7277143 -12.6875 3.9375 C-7.99861116 0.55713828 -5.85055894 -0.49581008 0 0 Z " fill="#97D1C8" transform="translate(1209,419)"/>
<path d="M0 0 C4.20142002 1.64761569 6.99528597 3.6485882 10 7 C10.61875 6.195625 11.2375 5.39125 11.875 4.5625 C14.10154316 1.8775509 14.82658276 1.14537913 18.20703125 0.7265625 C25.28722953 0.45057276 25.28722953 0.45057276 29 3.3125 C32.45218695 7.95137621 33.59539795 10.1452535 33 16 C31.3562347 19.11141288 29.96963114 21.28893717 27.125 23.375 C24.36226686 24.18756857 21.86228888 24.13010404 19 24 C18.731875 24.804375 18.46375 25.60875 18.1875 26.4375 C17.795625 27.283125 17.40375 28.12875 17 29 C15.515 29.495 15.515 29.495 14 30 C14 30.66 14 31.32 14 32 C14.89900528 31.99111755 15.79801056 31.98223511 16.72425842 31.9730835 C25.2132404 31.8928012 33.70209412 31.83196635 42.19136906 31.79275131 C46.55539766 31.77191233 50.9191115 31.7436627 55.28295898 31.69824219 C59.49752822 31.65465195 63.71179546 31.63083515 67.9265728 31.62049103 C69.53129261 31.61312321 71.13599664 31.59873548 72.74058723 31.57707977 C74.99546628 31.54786914 77.24911137 31.54405114 79.50415039 31.54589844 C80.78544327 31.53701599 82.06673615 31.52813354 83.38685608 31.51898193 C88.50783737 32.20073848 92.11296444 34.03959654 95.76017761 37.82861328 C98.90927684 42.95452574 99.68881968 46.90666333 99.48828125 52.875 C99.47766914 54.08990112 99.47766914 54.08990112 99.46684265 55.3293457 C99.4391089 57.88721641 99.37641784 60.44280406 99.3125 63 C99.28738963 64.74606188 99.26458128 66.49215846 99.24414062 68.23828125 C99.18935231 72.49305178 99.1032336 76.74614042 99 81 C100.10601562 81.11472656 101.21203125 81.22945313 102.3515625 81.34765625 C106 82 106 82 108.375 84.4375 C111.69540898 89.67352954 111.22013107 94.14927193 111.25 100.25 C111.2809375 101.80654297 111.2809375 101.80654297 111.3125 103.39453125 C111.34108723 108.99048073 111.28034088 113.22432474 108 118 C104.61101532 120.60691129 103.37265387 121 99 121 C99.01110306 121.58358276 99.02220612 122.16716553 99.03364563 122.76843262 C99.14466803 128.86825177 99.21984421 134.96778174 99.2746582 141.06835938 C99.29972943 143.34191557 99.3337953 145.61539174 99.37719727 147.88867188 C99.43817275 151.16556594 99.4662846 154.44139011 99.48828125 157.71875 C99.51408768 158.72740112 99.5398941 159.73605225 99.56648254 160.77526855 C99.56911258 167.46355718 98.32996041 171.83031823 94 177 C89.16770999 181.48712644 85.75162045 182.12473338 79.27044678 182.14717102 C78.58270211 182.15084771 77.89495745 182.1545244 77.18637204 182.1583125 C74.87651915 182.16934584 72.56671124 182.17319257 70.25683594 182.17700195 C68.60274615 182.18326686 66.94865776 182.18991369 65.29457092 182.19691467 C59.85784892 182.21795392 54.42112663 182.22831681 48.984375 182.23828125 C47.11264277 182.24232883 45.2409107 182.24644576 43.36917877 182.25063133 C34.57578577 182.26968257 25.78240117 182.28391384 16.9889915 182.2922433 C6.83916221 182.3020164 -3.31044904 182.32833808 -13.4602015 182.36874419 C-21.30574359 182.39890526 -29.15122318 182.41371216 -36.99682212 182.41702431 C-41.68247127 182.41937479 -46.36788747 182.42833491 -51.05347443 182.45348549 C-55.46285733 182.47677112 -59.87185397 182.48099753 -64.28128242 182.47072411 C-65.89736529 182.47022875 -67.5134672 182.47654904 -69.12949181 182.49028015 C-71.34095923 182.50801545 -73.55104281 182.5008865 -75.76251221 182.48774719 C-76.99842731 182.49013555 -78.23434242 182.4925239 -79.5077095 182.49498463 C-84.83962391 181.73925836 -88.5239156 179.51597857 -92.3125 175.625 C-96.51081368 169.09428983 -96.30717928 162.69068871 -96.32226562 155.1706543 C-96.33219543 153.98454559 -96.34212524 152.79843689 -96.35235596 151.5763855 C-96.37649662 148.33448089 -96.39146876 145.09272018 -96.40037727 141.8507421 C-96.40625812 139.82141576 -96.41447122 137.79211153 -96.42338562 135.7627964 C-96.45070065 129.40202024 -96.47005178 123.04129516 -96.4777894 116.68046445 C-96.48674725 109.35869412 -96.52183984 102.03767121 -96.57979059 94.71612805 C-96.62313028 89.04201272 -96.64320348 83.3681069 -96.64587164 77.69382793 C-96.64795998 74.3113512 -96.65960523 70.92957868 -96.69551086 67.54727745 C-96.72971134 63.77012198 -96.72585407 59.99477777 -96.71289062 56.2175293 C-96.73132019 55.10917221 -96.74974976 54.00081512 -96.76873779 52.85887146 C-96.68861238 45.38721294 -95.07513115 40.57022649 -90 35 C-86.06543197 31.68732464 -82.85445143 31.63505678 -77.79467773 31.6628418 C-76.73520432 31.66201096 -76.73520432 31.66201096 -75.65432739 31.66116333 C-74.12764009 31.66142237 -72.60094256 31.66826456 -71.0743084 31.68100548 C-68.65718119 31.69941997 -66.24091828 31.69670444 -63.82374573 31.6879425 C-56.95438182 31.66615209 -50.08535289 31.67713602 -43.21606445 31.71508789 C-39.0084493 31.73686054 -34.8016871 31.72967584 -30.59410286 31.7046299 C-28.99251929 31.70103464 -27.39086914 31.70870872 -25.78939629 31.72788048 C-23.55061256 31.75417129 -21.31472593 31.74380618 -19.07592773 31.7253418 C-17.80305405 31.72994919 -16.53018036 31.73455658 -15.21873474 31.73930359 C-11.71026148 31.28375305 -11.71026148 31.28375305 -9.55775452 27.95466614 C-8.78666603 26.4921064 -8.78666603 26.4921064 -8 25 C-8.969375 24.21625 -9.93875 23.4325 -10.9375 22.625 C-13.66831118 20.41711011 -14.86663969 19.18309647 -15.2734375 15.57421875 C-15.54949855 7.7277143 -15.54949855 7.7277143 -12.6875 3.9375 C-7.99861116 0.55713828 -5.85055894 -0.49581008 0 0 Z M-89 56 C-89.07010698 70.51659693 -89.12279693 85.03316758 -89.15543652 99.5498991 C-89.17089995 106.29040374 -89.19197931 113.03080314 -89.22631836 119.77124023 C-89.25943363 126.27456582 -89.27684723 132.77782308 -89.28463173 139.28122902 C-89.29018025 141.76397232 -89.30101494 144.24670955 -89.31719017 146.72940636 C-89.33892659 150.20344415 -89.34196844 153.67702833 -89.34057617 157.15112305 C-89.351362 158.18042938 -89.36214783 159.20973572 -89.3732605 160.27023315 C-89.38154089 167.14685418 -89.38154089 167.14685418 -86 173 C-82.35787535 175.4280831 -80.64189812 175.25772245 -76.30168152 175.27415466 C-75.2751315 175.28200968 -75.2751315 175.28200968 -74.22784311 175.29002339 C-71.92942455 175.30505233 -69.63122804 175.30572916 -67.33276367 175.30639648 C-65.68690107 175.31401609 -64.04104204 175.32244325 -62.39518738 175.33161926 C-57.91989144 175.35359215 -53.44466385 175.36236702 -48.96932006 175.36744571 C-46.17367918 175.37108631 -43.37805629 175.37732486 -40.58242226 175.3844471 C-30.8302494 175.40895232 -21.07812981 175.42199558 -11.32592773 175.42553711 C-2.23440168 175.42917212 6.85678673 175.45906223 15.94820958 175.50094169 C23.7521327 175.5356305 31.55594386 175.55108531 39.35994357 175.55178314 C44.0215703 175.55257651 48.6828533 175.56134229 53.34440041 175.58978081 C57.73005976 175.61593705 62.11508987 175.61818056 66.50079155 175.60212517 C68.10923254 175.60030865 69.7177095 175.60701982 71.32607269 175.62294388 C73.52503642 175.64338552 75.72179452 175.63286766 77.92073059 175.61473083 C79.76492443 175.61774783 79.76492443 175.61774783 81.6463747 175.62082577 C86.1274481 174.79128592 87.77947057 173.17939299 91 170 C92.19791173 167.60417654 92.1206744 166.13222462 92.11352539 163.45849609 C92.11344986 162.51767181 92.11337433 161.57684753 92.11329651 160.60751343 C92.10813522 159.58976837 92.10297394 158.57202332 92.09765625 157.5234375 C92.0962413 156.48305328 92.09482635 155.44266907 92.09336853 154.37075806 C92.08775866 151.03880979 92.07520447 147.70692805 92.0625 144.375 C92.05748627 142.11979264 92.05292314 139.86458422 92.04882812 137.609375 C92.03778603 132.07289386 92.02103827 126.53645168 92 121 C90.92105469 120.99589111 89.84210938 120.99178223 88.73046875 120.98754883 C84.69695377 120.96564608 80.66439893 120.91124295 76.63134766 120.84741211 C74.89153298 120.82432865 73.15158047 120.80985919 71.41162109 120.80444336 C68.89855011 120.79508235 66.38761798 120.75394133 63.875 120.70703125 C62.72294067 120.71293022 62.72294067 120.71293022 61.54760742 120.71894836 C55.69974338 120.56375272 51.47262504 118.81341777 47 115 C45.30323265 112.72501832 44.22282729 110.59239386 43 108 C42.67 107.34 42.34 106.68 42 106 C41.22587957 99.17251162 41.92127238 93.63014548 46 88 C50.18223919 83.50465199 53.73068967 82.12396012 59.75878906 81.79467773 C61.26094843 81.75309107 62.76324688 81.71633779 64.265625 81.68359375 C65.05902283 81.66281265 65.85242065 81.64203156 66.66986084 81.62062073 C69.19648844 81.55540027 71.72321721 81.49636856 74.25 81.4375 C75.96615616 81.3942886 77.68230222 81.35067347 79.3984375 81.30664062 C83.59885627 81.19898966 87.79935527 81.09971227 92 81 C92 73.74 92 66.48 92 59 C89.82091034 58.99191315 87.64182068 58.98382629 85.396698 58.97549438 C64.88420416 58.89843171 44.37177771 58.81048079 23.85937309 58.71247292 C13.31316453 58.66234574 2.76696375 58.61590278 -7.77929688 58.578125 C-16.97114085 58.54518954 -26.16292449 58.50534965 -35.35470188 58.45720994 C-40.22190965 58.43196048 -45.08907749 58.41017455 -49.95633316 58.39665604 C-54.53799342 58.38382168 -59.11951659 58.36175229 -63.7011013 58.33261681 C-65.38207581 58.32355181 -67.06307238 58.31785331 -68.74407005 58.31578636 C-71.04113408 58.3124562 -73.3378112 58.29695862 -75.63479614 58.2784729 C-77.56226527 58.27017676 -77.56226527 58.27017676 -79.52867317 58.26171303 C-83.00193094 57.99985442 -85.76326332 57.25228741 -89 56 Z " fill="#41484B" transform="translate(390,421)"/>
<path d="M0 0 C4.20142002 1.64761569 6.99528597 3.6485882 10 7 C10.61875 6.195625 11.2375 5.39125 11.875 4.5625 C14.10154316 1.8775509 14.82658276 1.14537913 18.20703125 0.7265625 C25.28722953 0.45057276 25.28722953 0.45057276 29 3.3125 C32.45218695 7.95137621 33.59539795 10.1452535 33 16 C31.3562347 19.11141288 29.96963114 21.28893717 27.125 23.375 C24.36226686 24.18756857 21.86228888 24.13010404 19 24 C18.731875 24.804375 18.46375 25.60875 18.1875 26.4375 C17.795625 27.283125 17.40375 28.12875 17 29 C15.515 29.495 15.515 29.495 14 30 C14 30.66 14 31.32 14 32 C14.89900528 31.99111755 15.79801056 31.98223511 16.72425842 31.9730835 C25.2132404 31.8928012 33.70209412 31.83196635 42.19136906 31.79275131 C46.55539766 31.77191233 50.9191115 31.7436627 55.28295898 31.69824219 C59.49752822 31.65465195 63.71179546 31.63083515 67.9265728 31.62049103 C69.53129261 31.61312321 71.13599664 31.59873548 72.74058723 31.57707977 C74.99546628 31.54786914 77.24911137 31.54405114 79.50415039 31.54589844 C80.78544327 31.53701599 82.06673615 31.52813354 83.38685608 31.51898193 C88.50783737 32.20073848 92.11296444 34.03959654 95.76017761 37.82861328 C98.90927684 42.95452574 99.68881968 46.90666333 99.48828125 52.875 C99.47766914 54.08990112 99.47766914 54.08990112 99.46684265 55.3293457 C99.4391089 57.88721641 99.37641784 60.44280406 99.3125 63 C99.28738963 64.74606188 99.26458128 66.49215846 99.24414062 68.23828125 C99.18935231 72.49305178 99.1032336 76.74614042 99 81 C100.10601563 81.11472656 101.21203125 81.22945313 102.3515625 81.34765625 C106 82 106 82 108.375 84.4375 C111.69540898 89.67352954 111.22013107 94.14927193 111.25 100.25 C111.2809375 101.80654297 111.2809375 101.80654297 111.3125 103.39453125 C111.34108723 108.99048073 111.28034088 113.22432474 108 118 C104.61101532 120.60691129 103.37265387 121 99 121 C99.01110306 121.58358276 99.02220612 122.16716553 99.03364563 122.76843262 C99.14466803 128.86825177 99.21984421 134.96778174 99.2746582 141.06835938 C99.29972943 143.34191557 99.3337953 145.61539174 99.37719727 147.88867188 C99.43817275 151.16556594 99.4662846 154.44139011 99.48828125 157.71875 C99.51408768 158.72740112 99.5398941 159.73605225 99.56648254 160.77526855 C99.56911258 167.46355718 98.32996041 171.83031823 94 177 C89.16770999 181.48712644 85.75162045 182.12473338 79.27044678 182.14717102 C78.58270211 182.15084771 77.89495745 182.1545244 77.18637204 182.1583125 C74.87651915 182.16934584 72.56671124 182.17319257 70.25683594 182.17700195 C68.60274615 182.18326686 66.94865776 182.18991369 65.29457092 182.19691467 C59.85784892 182.21795392 54.42112663 182.22831681 48.984375 182.23828125 C47.11264277 182.24232883 45.2409107 182.24644576 43.36917877 182.25063133 C34.57578577 182.26968257 25.78240117 182.28391384 16.9889915 182.2922433 C6.83916221 182.3020164 -3.31044904 182.32833808 -13.4602015 182.36874419 C-21.30574359 182.39890526 -29.15122318 182.41371216 -36.99682212 182.41702431 C-41.68247127 182.41937479 -46.36788747 182.42833491 -51.05347443 182.45348549 C-55.46285733 182.47677112 -59.87185397 182.48099753 -64.28128242 182.47072411 C-65.89736529 182.47022875 -67.5134672 182.47654904 -69.12949181 182.49028015 C-71.34095923 182.50801545 -73.55104281 182.5008865 -75.76251221 182.48774719 C-76.99842731 182.49013555 -78.23434242 182.4925239 -79.5077095 182.49498463 C-84.83962391 181.73925836 -88.5239156 179.51597857 -92.3125 175.625 C-96.51081368 169.09428983 -96.30717928 162.69068871 -96.32226562 155.1706543 C-96.33219543 153.98454559 -96.34212524 152.79843689 -96.35235596 151.5763855 C-96.37649662 148.33448089 -96.39146876 145.09272018 -96.40037727 141.8507421 C-96.40625812 139.82141576 -96.41447122 137.79211153 -96.42338562 135.7627964 C-96.45070065 129.40202024 -96.47005178 123.04129516 -96.4777894 116.68046445 C-96.48674725 109.35869412 -96.52183984 102.03767121 -96.57979059 94.71612805 C-96.62313028 89.04201272 -96.64320348 83.3681069 -96.64587164 77.69382793 C-96.64795998 74.3113512 -96.65960523 70.92957868 -96.69551086 67.54727745 C-96.72971134 63.77012198 -96.72585407 59.99477777 -96.71289062 56.2175293 C-96.73132019 55.10917221 -96.74974976 54.00081512 -96.76873779 52.85887146 C-96.68861238 45.38721294 -95.07513115 40.57022649 -90 35 C-86.06543197 31.68732464 -82.85445143 31.63505678 -77.79467773 31.6628418 C-76.73520432 31.66201096 -76.73520432 31.66201096 -75.65432739 31.66116333 C-74.12764009 31.66142237 -72.60094256 31.66826456 -71.0743084 31.68100548 C-68.65718119 31.69941997 -66.24091828 31.69670444 -63.82374573 31.6879425 C-56.95438182 31.66615209 -50.08535289 31.67713602 -43.21606445 31.71508789 C-39.0084493 31.73686054 -34.8016871 31.72967584 -30.59410286 31.7046299 C-28.99251929 31.70103464 -27.39086914 31.70870872 -25.78939629 31.72788048 C-23.55061256 31.75417129 -21.31472593 31.74380618 -19.07592773 31.7253418 C-17.80305405 31.72994919 -16.53018036 31.73455658 -15.21873474 31.73930359 C-11.71026148 31.28375305 -11.71026148 31.28375305 -9.55775452 27.95466614 C-8.78666603 26.4921064 -8.78666603 26.4921064 -8 25 C-8.969375 24.21625 -9.93875 23.4325 -10.9375 22.625 C-13.66831118 20.41711011 -14.86663969 19.18309647 -15.2734375 15.57421875 C-15.54949855 7.7277143 -15.54949855 7.7277143 -12.6875 3.9375 C-7.99861116 0.55713828 -5.85055894 -0.49581008 0 0 Z M-89 56 C-89.07010698 70.51659693 -89.12279693 85.03316758 -89.15543652 99.5498991 C-89.17089995 106.29040374 -89.19197931 113.03080314 -89.22631836 119.77124023 C-89.25943363 126.27456582 -89.27684723 132.77782308 -89.28463173 139.28122902 C-89.29018025 141.76397232 -89.30101494 144.24670955 -89.31719017 146.72940636 C-89.33892659 150.20344415 -89.34196844 153.67702833 -89.34057617 157.15112305 C-89.351362 158.18042938 -89.36214783 159.20973572 -89.3732605 160.27023315 C-89.38154089 167.14685418 -89.38154089 167.14685418 -86 173 C-82.35787535 175.4280831 -80.64189812 175.25772245 -76.30168152 175.27415466 C-75.2751315 175.28200968 -75.2751315 175.28200968 -74.22784311 175.29002339 C-71.92942455 175.30505233 -69.63122804 175.30572916 -67.33276367 175.30639648 C-65.68690107 175.31401609 -64.04104204 175.32244325 -62.39518738 175.33161926 C-57.91989144 175.35359215 -53.44466385 175.36236702 -48.96932006 175.36744571 C-46.17367918 175.37108631 -43.37805629 175.37732486 -40.58242226 175.3844471 C-30.8302494 175.40895232 -21.07812981 175.42199558 -11.32592773 175.42553711 C-2.23440168 175.42917212 6.85678673 175.45906223 15.94820958 175.50094169 C23.7521327 175.5356305 31.55594386 175.55108531 39.35994357 175.55178314 C44.0215703 175.55257651 48.6828533 175.56134229 53.34440041 175.58978081 C57.73005976 175.61593705 62.11508987 175.61818056 66.50079155 175.60212517 C68.10923254 175.60030865 69.7177095 175.60701982 71.32607269 175.62294388 C73.52503642 175.64338552 75.72179452 175.63286766 77.92073059 175.61473083 C79.76492443 175.61774783 79.76492443 175.61774783 81.6463747 175.62082577 C86.1274481 174.79128592 87.77947057 173.17939299 91 170 C92.19791173 167.60417654 92.1206744 166.13222462 92.11352539 163.45849609 C92.11344986 162.51767181 92.11337433 161.57684753 92.11329651 160.60751343 C92.10813522 159.58976837 92.10297394 158.57202332 92.09765625 157.5234375 C92.0962413 156.48305328 92.09482635 155.44266907 92.09336853 154.37075806 C92.08775866 151.03880979 92.07520447 147.70692805 92.0625 144.375 C92.05748627 142.11979264 92.05292314 139.86458422 92.04882812 137.609375 C92.03778603 132.07289386 92.02103827 126.53645168 92 121 C90.92105469 120.99589111 89.84210938 120.99178223 88.73046875 120.98754883 C84.69695377 120.96564608 80.66439893 120.91124295 76.63134766 120.84741211 C74.89153298 120.82432865 73.15158047 120.80985919 71.41162109 120.80444336 C68.89855011 120.79508235 66.38761798 120.75394133 63.875 120.70703125 C62.72294067 120.71293022 62.72294067 120.71293022 61.54760742 120.71894836 C55.69974338 120.56375272 51.47262504 118.81341777 47 115 C45.30323265 112.72501832 44.22282729 110.59239386 43 108 C42.67 107.34 42.34 106.68 42 106 C41.22587957 99.17251162 41.92127238 93.63014548 46 88 C50.18223919 83.50465199 53.73068967 82.12396012 59.75878906 81.79467773 C61.26094843 81.75309107 62.76324688 81.71633779 64.265625 81.68359375 C65.05902283 81.66281265 65.85242065 81.64203156 66.66986084 81.62062073 C69.19648844 81.55540027 71.72321721 81.49636856 74.25 81.4375 C75.96615616 81.3942886 77.68230222 81.35067347 79.3984375 81.30664062 C83.59885627 81.19898966 87.79935527 81.09971227 92 81 C92 73.74 92 66.48 92 59 C89.82091034 58.99191315 87.64182068 58.98382629 85.396698 58.97549438 C64.88420416 58.89843171 44.37177771 58.81048079 23.85937309 58.71247292 C13.31316453 58.66234574 2.76696375 58.61590278 -7.77929688 58.578125 C-16.97114085 58.54518954 -26.16292449 58.50534965 -35.35470188 58.45720994 C-40.22190965 58.43196048 -45.08907749 58.41017455 -49.95633316 58.39665604 C-54.53799342 58.38382168 -59.11951659 58.36175229 -63.7011013 58.33261681 C-65.38207581 58.32355181 -67.06307238 58.31785331 -68.74407005 58.31578636 C-71.04113408 58.3124562 -73.3378112 58.29695862 -75.63479614 58.2784729 C-77.56226527 58.27017676 -77.56226527 58.27017676 -79.52867317 58.26171303 C-83.00193094 57.99985442 -85.76326332 57.25228741 -89 56 Z " fill="#41484B" transform="translate(1209,419)"/>
<path d="M0 0 C0.67876285 -0.00709439 1.35752569 -0.01418877 2.05685711 -0.02149814 C4.31884517 -0.03902368 6.57910227 -0.02100389 8.84106445 -0.00291443 C10.46766947 -0.0080554 12.09426892 -0.01533802 13.72085571 -0.02459717 C18.1300638 -0.04309701 22.53866646 -0.03018175 26.94784927 -0.01050687 C31.56550029 0.00589273 36.18311336 -0.00293509 40.80078125 -0.00802612 C48.55486712 -0.01254562 56.30871164 0.00331378 64.06274414 0.03126526 C73.02310403 0.06331654 81.98302867 0.06330097 90.94341946 0.04605049 C99.56866848 0.03017794 108.19375818 0.03692364 116.81900024 0.0539875 C120.48715464 0.06085394 124.15518116 0.05982973 127.82333374 0.05244255 C132.1441888 0.04477239 136.46454948 0.05692945 140.78532028 0.08429146 C142.36954659 0.09116875 143.95381912 0.09128026 145.53804398 0.08407593 C147.70380851 0.07536306 149.86805366 0.09136522 152.03369141 0.11352539 C153.24450882 0.11633231 154.45532623 0.11913923 155.70283508 0.12203121 C159.71547516 0.73489267 161.86986351 2.10534629 165.0168457 4.62818909 C167.4462973 8.27236649 167.17864145 10.34060181 167.0168457 14.62818909 C144.28607312 14.72159465 121.55533213 14.7921498 98.82440662 14.83543777 C88.27024232 14.8560706 77.71619719 14.88420501 67.16210938 14.9299469 C57.96409056 14.96979255 48.76615805 14.99561666 39.56805533 15.00454307 C34.69685572 15.00976166 29.82590303 15.02204225 24.95478249 15.05110931 C20.37064184 15.07824249 15.78685004 15.08663833 11.20263672 15.08061981 C9.51959526 15.08172099 7.83654224 15.08968744 6.15357018 15.10501099 C3.85588263 15.12490679 1.55951294 15.12013075 -0.73820496 15.10920715 C-2.02410617 15.11289433 -3.31000738 15.1165815 -4.6348753 15.1203804 C-8.56382112 14.54283205 -10.2209567 13.432835 -12.9831543 10.62818909 C-13.6706543 8.19068909 -13.6706543 8.19068909 -12.9831543 5.62818909 C-8.6858268 1.30716536 -6.25995667 0.00303123 0 0 Z " fill="#ECEEEE" transform="translate(314.983154296875,458.37181091308594)"/>
<path d="M0 0 C0.67876285 -0.00709439 1.35752569 -0.01418877 2.05685711 -0.02149814 C4.31884517 -0.03902368 6.57910227 -0.02100389 8.84106445 -0.00291443 C10.46766947 -0.0080554 12.09426892 -0.01533802 13.72085571 -0.02459717 C18.1300638 -0.04309701 22.53866646 -0.03018175 26.94784927 -0.01050687 C31.56550029 0.00589273 36.18311336 -0.00293509 40.80078125 -0.00802612 C48.55486712 -0.01254562 56.30871164 0.00331378 64.06274414 0.03126526 C73.02310403 0.06331654 81.98302867 0.06330097 90.94341946 0.04605049 C99.56866848 0.03017794 108.19375818 0.03692364 116.81900024 0.0539875 C120.48715464 0.06085394 124.15518116 0.05982973 127.82333374 0.05244255 C132.1441888 0.04477239 136.46454948 0.05692945 140.78532028 0.08429146 C142.36954659 0.09116875 143.95381912 0.09128026 145.53804398 0.08407593 C147.70380851 0.07536306 149.86805366 0.09136522 152.03369141 0.11352539 C153.24450882 0.11633231 154.45532623 0.11913923 155.70283508 0.12203121 C159.71547516 0.73489267 161.86986351 2.10534629 165.0168457 4.62818909 C167.4462973 8.27236649 167.17864145 10.34060181 167.0168457 14.62818909 C144.28607312 14.72159465 121.55533213 14.7921498 98.82440662 14.83543777 C88.27024232 14.8560706 77.71619719 14.88420501 67.16210938 14.9299469 C57.96409056 14.96979255 48.76615805 14.99561666 39.56805533 15.00454307 C34.69685572 15.00976166 29.82590303 15.02204225 24.95478249 15.05110931 C20.37064184 15.07824249 15.78685004 15.08663833 11.20263672 15.08061981 C9.51959526 15.08172099 7.83654224 15.08968744 6.15357018 15.10501099 C3.85588263 15.12490679 1.55951294 15.12013075 -0.73820496 15.10920715 C-2.02410617 15.11289433 -3.31000738 15.1165815 -4.6348753 15.1203804 C-8.56382112 14.54283205 -10.2209567 13.432835 -12.9831543 10.62818909 C-13.6706543 8.19068909 -13.6706543 8.19068909 -12.9831543 5.62818909 C-8.6858268 1.30716536 -6.25995667 0.00303123 0 0 Z " fill="#ECEEEE" transform="translate(1133.983154296875,456.37181091308594)"/>
<path d="M0 0 C0.82765869 -0.00953201 1.65531738 -0.01906403 2.50805664 -0.02888489 C3.8363147 -0.02751778 3.8363147 -0.02751778 5.19140625 -0.02612305 C6.10849365 -0.03040817 7.02558105 -0.0346933 7.97045898 -0.03910828 C9.90705541 -0.04484449 11.84367338 -0.04535706 13.78027344 -0.04101562 C16.74321172 -0.03785321 19.70515369 -0.061332 22.66796875 -0.08666992 C24.55077999 -0.08894274 26.43359392 -0.08964649 28.31640625 -0.08862305 C29.20191162 -0.09783279 30.08741699 -0.10704254 30.99975586 -0.11653137 C34.53002371 -0.0899633 37.09514352 -0.03607183 40.31494141 1.48266602 C42.22721348 3.8640839 42.24277974 5.2732824 42.21484375 8.30981445 C42.21097656 9.28370117 42.20710938 10.25758789 42.203125 11.26098633 C42.16638672 12.78369141 42.16638672 12.78369141 42.12890625 14.3371582 C42.12761719 15.35616211 42.12632812 16.37516602 42.125 17.42504883 C42.03471611 24.99384834 42.03471611 24.99384834 39.75390625 27.2746582 C37.80743408 27.54881287 37.80743408 27.54881287 35.39941406 27.58105469 C34.49797668 27.59704208 33.59653931 27.61302948 32.66778564 27.62950134 C31.20221222 27.63754539 31.20221222 27.63754539 29.70703125 27.64575195 C28.20109406 27.65929466 28.20109406 27.65929466 26.66473389 27.67311096 C24.53628532 27.68763973 22.40779183 27.69650669 20.27929688 27.70019531 C17.03047648 27.71206116 13.78357373 27.76119607 10.53515625 27.81176758 C8.46745719 27.82123506 6.39974645 27.82846854 4.33203125 27.83325195 C2.87860321 27.86255043 2.87860321 27.86255043 1.39581299 27.8924408 C-3.10063915 27.86254272 -6.24816031 27.77078477 -9.82324219 24.86743164 C-13.83469856 20.57463976 -14.81403135 17.39300676 -14.69921875 11.5949707 C-13.90335484 7.51959863 -11.38069632 4.87005161 -8.24609375 2.2746582 C-5.3839654 0.60972482 -3.30131731 0.02097479 0 0 Z " fill="#F1F3F2" transform="translate(452.24609375,507.725341796875)"/>
<path d="M0 0 C0.82765869 -0.00953201 1.65531738 -0.01906403 2.50805664 -0.02888489 C3.8363147 -0.02751778 3.8363147 -0.02751778 5.19140625 -0.02612305 C6.10849365 -0.03040817 7.02558105 -0.0346933 7.97045898 -0.03910828 C9.90705541 -0.04484449 11.84367338 -0.04535706 13.78027344 -0.04101562 C16.74321172 -0.03785321 19.70515369 -0.061332 22.66796875 -0.08666992 C24.55077999 -0.08894274 26.43359392 -0.08964649 28.31640625 -0.08862305 C29.20191162 -0.09783279 30.08741699 -0.10704254 30.99975586 -0.11653137 C34.53002371 -0.0899633 37.09514352 -0.03607183 40.31494141 1.48266602 C42.22721348 3.8640839 42.24277974 5.2732824 42.21484375 8.30981445 C42.21097656 9.28370117 42.20710938 10.25758789 42.203125 11.26098633 C42.16638672 12.78369141 42.16638672 12.78369141 42.12890625 14.3371582 C42.12761719 15.35616211 42.12632813 16.37516602 42.125 17.42504883 C42.03471611 24.99384834 42.03471611 24.99384834 39.75390625 27.2746582 C37.80743408 27.54881287 37.80743408 27.54881287 35.39941406 27.58105469 C34.49797668 27.59704208 33.59653931 27.61302948 32.66778564 27.62950134 C31.20221222 27.63754539 31.20221222 27.63754539 29.70703125 27.64575195 C28.20109406 27.65929466 28.20109406 27.65929466 26.66473389 27.67311096 C24.53628532 27.68763973 22.40779183 27.69650669 20.27929688 27.70019531 C17.03047648 27.71206116 13.78357373 27.76119607 10.53515625 27.81176758 C8.46745719 27.82123506 6.39974645 27.82846854 4.33203125 27.83325195 C2.87860321 27.86255043 2.87860321 27.86255043 1.39581299 27.8924408 C-3.10063915 27.86254272 -6.24816031 27.77078477 -9.82324219 24.86743164 C-13.83469856 20.57463976 -14.81403135 17.39300676 -14.69921875 11.5949707 C-13.90335484 7.51959863 -11.38069632 4.87005161 -8.24609375 2.2746582 C-5.3839654 0.60972482 -3.30131731 0.02097479 0 0 Z " fill="#F1F3F2" transform="translate(1271.24609375,505.725341796875)"/>
<path d="M0 0 C1.32 0 2.64 0 4 0 C4 0.66 4 1.32 4 2 C4.886875 2.061875 5.77375 2.12375 6.6875 2.1875 C10.89156098 3.21868477 12.34610413 4.60891084 15 8 C15.93548412 10.34113384 16.46501857 12.51963153 17 15 C11.64086809 15.43927311 11.64086809 15.43927311 9 15 C7.125 12.5625 7.125 12.5625 6 10 C5.34 9.67 4.68 9.34 4 9 C4 13.29 4 17.58 4 22 C5.65 22.33 7.3 22.66 9 23 C12.57333058 25.10195916 14.68895157 26.53342735 17 30 C17.69920885 34.79689791 17.71482085 38.77459282 15.25 43 C11.46724727 46.36244687 9.08232489 47.28235138 4 47 C4 49.31 4 51.62 4 54 C2.68 54 1.36 54 0 54 C-0.33 52.02 -0.66 50.04 -1 48 C-1.60328125 47.85304687 -2.2065625 47.70609375 -2.828125 47.5546875 C-7.14421234 46.34339847 -9.51374158 45.54555823 -12.5625 42.125 C-13.97497639 39.05439915 -14.39043893 37.31873092 -14 34 C-11.36 34 -8.72 34 -6 34 C-5.7525 34.78375 -5.505 35.5675 -5.25 36.375 C-4.11295988 39.45624577 -4.11295988 39.45624577 0 41 C-0.33 36.71 -0.66 32.42 -1 28 C-2.423125 27.443125 -3.84625 26.88625 -5.3125 26.3125 C-8.1916033 25.00875511 -9.87472937 24.13286279 -12.0625 21.8125 C-13.58419629 17.24741114 -14.25502616 12.63276598 -12.12109375 8.15625 C-9.07864887 4.05949253 -5.79869175 3.1073904 -1 2 C-0.67 1.34 -0.34 0.68 0 0 Z " fill="#070707" transform="translate(625,98)"/>
<path d="M0 0 C11.88 0 23.76 0 36 0 C36 2.64 36 5.28 36 8 C33.03 8 30.06 8 27 8 C27 8.99 27 9.98 27 11 C29.97 11 32.94 11 36 11 C36 13.64 36 16.28 36 19 C33.03 19 30.06 19 27 19 C27.12375 20.5778125 27.12375 20.5778125 27.25 22.1875 C26.96016194 26.60753036 26.22752874 28.03416278 23 31 C20.35546875 31.6328125 20.35546875 31.6328125 18 32 C18.47050781 32.60328125 18.94101562 33.2065625 19.42578125 33.828125 C20.04839844 34.62734375 20.67101562 35.4265625 21.3125 36.25 C21.92738281 37.03890625 22.54226563 37.8278125 23.17578125 38.640625 C24.80379018 40.7462297 26.40935863 42.86609343 28 45 C25.03 47.475 25.03 47.475 22 50 C15.15898248 42.67978077 9.00984672 35.00476453 3 27 C4.51947499 23.63251488 5.52100842 22.39159663 9 21 C9.8353125 21.99 9.8353125 21.99 10.6875 23 C12.84062308 25.25492211 12.84062308 25.25492211 15.75 25.25 C16.86375 25.12625 16.86375 25.12625 18 25 C18.66 23.02 19.32 21.04 20 19 C13.4 19 6.8 19 0 19 C0 16.36 0 13.72 0 11 C6.6 11 13.2 11 20 11 C20 10.01 20 9.02 20 8 C13.4 8 6.8 8 0 8 C0 5.36 0 2.72 0 0 Z " fill="#020202" transform="translate(664,98)"/>
<path d="M0 0 C-0.66 2.31 -1.32 4.62 -2 7 C-2.99 6.67 -3.98 6.34 -5 6 C-9.80885298 5.36962601 -12.95803461 5.22406832 -16.9375 8.1875 C-19.31488182 11.18406236 -19.31488182 11.18406236 -21 16 C-15.72 16 -10.44 16 -5 16 C-5.66 17.32 -6.32 18.64 -7 20 C-11.95 20 -16.9 20 -22 20 C-22 21.32 -22 22.64 -22 24 C-17.71 24 -13.42 24 -9 24 C-9.33 25.32 -9.66 26.64 -10 28 C-13.63 28 -17.26 28 -21 28 C-18.71330544 33.03735277 -18.71330544 33.03735277 -15 37 C-10.12255999 37.8494418 -5.40997287 37.27611503 -1 35 C-1 37.97 -1 40.94 -1 44 C-13.68405973 47.03111721 -13.68405973 47.03111721 -20 44 C-25.35071079 40.60870443 -28.07670281 36.99616184 -30 31 C-30 30.01 -30 29.02 -30 28 C-31.65 28 -33.3 28 -35 28 C-34.67 26.68 -34.34 25.36 -34 24 C-33.01 24 -32.02 24 -31 24 C-31 22.68 -31 21.36 -31 20 C-32.32 20 -33.64 20 -35 20 C-34.6875 18.0625 -34.6875 18.0625 -34 16 C-33.01 15.67 -32.02 15.34 -31 15 C-30.00684518 12.86890219 -30.00684518 12.86890219 -29.25 10.3125 C-27.25244095 5.02350842 -24.89835295 1.8690353 -20 -1 C-13.5387335 -3.83504551 -5.92570209 -3.95046806 0 0 Z " fill="#040404" transform="translate(757,100)"/>
<path d="M0 0 C1.32 0 2.64 0 4 0 C4 1.65 4 3.3 4 5 C4.9075 5.0825 5.815 5.165 6.75 5.25 C10.47408179 6.10940349 11.77765381 6.92290527 14 10 C14.25 12.75 14.25 12.75 14 15 C12.35 15 10.7 15 9 15 C8.731875 14.360625 8.46375 13.72125 8.1875 13.0625 C7.11332248 10.66868314 7.11332248 10.66868314 4 10 C4 13.3 4 16.6 4 20 C5.60875 20.3403125 5.60875 20.3403125 7.25 20.6875 C11.48172749 22.16860462 12.84021131 23.11238036 15 27 C15.5625 30.5 15.5625 30.5 15 34 C12.5625 36.875 12.5625 36.875 10 39 C9.67 39.33 9.34 39.66 9 40 C7.33382885 40.04063832 5.66611905 40.042721 4 40 C4 41.98 4 43.96 4 46 C2.68 45.67 1.36 45.34 0 45 C0 43.35 0 41.7 0 40 C-0.9075 39.95875 -1.815 39.9175 -2.75 39.875 C-6 39 -6 39 -8.375 36.25 C-9.9631942 33.0736116 -10.40801001 31.46808506 -10 28 C-8.35 28 -6.7 28 -5 28 C-4.566875 28.969375 -4.13375 29.93875 -3.6875 30.9375 C-2.2985139 34.27731765 -2.2985139 34.27731765 1 35 C0.98715356 31.57642349 0.8414343 28.32798053 0 25 C-2.8004163 23.01637964 -2.8004163 23.01637964 -6 22 C-8.87458039 19.41287765 -9.0023243 17.98169613 -9.5 14.0625 C-9.37104999 10.61308712 -8.96298946 9.95065262 -6.75 7 C-4 5 -4 5 0 5 C0 3.35 0 1.7 0 0 Z " fill="#414647" transform="translate(377,350)"/>
<path d="M0 0 C1.03125 0.165 2.0625 0.33 3.125 0.5 C6.87659963 1.09355418 6.87659963 1.09355418 10.1875 0.875 C13.44883539 1.01994824 14.63932103 1.82091172 17 4 C16.67 5.32 16.34 6.64 16 8 C11.545 7.01 11.545 7.01 7 6 C8.65 8.64 10.3 11.28 12 14 C12.680625 13.835 13.36125 13.67 14.0625 13.5 C17.55758457 12.90509199 20.45987015 12.62070037 24 13 C26.875 15.4375 26.875 15.4375 29 18 C29.33 18.33 29.66 18.66 30 19 C30.48043926 25.36582018 30.48043926 25.36582018 28.4375 28.0625 C26.63727613 30.03677501 26.63727613 30.03677501 27.3125 33.25 C27.539375 34.1575 27.76625 35.065 28 36 C24 36 24 36 21 35 C20.01 35.495 20.01 35.495 19 36 C14.32818984 36.41527201 11.82491487 35.69993991 8 33 C8.33 31.35 8.66 29.7 9 28 C9.70125 28.144375 10.4025 28.28875 11.125 28.4375 C14.07556141 29.01478375 17.03270151 29.51695141 20 30 C18.38900478 26.83453571 16.7423905 24.287012 14 22 C10.7940751 21.57254335 8.01251223 21.73390442 4.8046875 22.109375 C2 22 2 22 -0.34375 20.29296875 C-2.98557447 16.63553723 -2.54467322 13.34182369 -2 9 C-1 6.1875 -1 6.1875 0 4 C0 2.68 0 1.36 0 0 Z " fill="#3F4344" transform="translate(304,389)"/>
<path d="M0 0 C1.32 0.66 2.64 1.32 4 2 C3.773125 2.763125 3.54625 3.52625 3.3125 4.3125 C3.209375 5.199375 3.10625 6.08625 3 7 C3.4846875 7.45375 3.969375 7.9075 4.46875 8.375 C6 10 6 10 6.29296875 12.26171875 C6.25816406 13.06222656 6.22335937 13.86273438 6.1875 14.6875 C6.16042969 15.49574219 6.13335937 16.30398438 6.10546875 17.13671875 C6.07066406 17.75160156 6.03585937 18.36648438 6 19 C5.01 19.33 4.02 19.66 3 20 C2.34 19.67 1.68 19.34 1 19 C0.59270772 16.67843403 0.25561323 14.3431213 0 12 C-0.66 12 -1.32 12 -2 12 C-4.47199014 15.25453472 -4.47199014 15.25453472 -4.8125 19.1875 C-4.04125467 21.19607555 -4.04125467 21.19607555 -2 23 C-1.37065797 26.08014513 -1.40450568 28.91619014 -2 32 C-4.60960314 35.19676385 -6.05450202 36.69376421 -10.109375 37.33203125 C-12.99426759 37.38993968 -15.39297788 37.30351106 -18 36 C-18.33 36.99 -18.66 37.98 -19 39 C-20.32 38.67 -21.64 38.34 -23 38 C-22.773125 37.0925 -22.54625 36.185 -22.3125 35.25 C-21.63122403 32.03988849 -21.63122403 32.03988849 -23.4375 30.125 C-25.87939412 26.80402399 -25.26199999 24.0609999 -25 20 C-24.67 19.34 -24.34 18.68 -24 18 C-22.68 18.33 -21.36 18.66 -20 19 C-18.95994298 22.38018531 -18.91995518 25.4780279 -19 29 C-16.3755397 26.6254883 -14.49307123 24.22189054 -13 21 C-13.6501992 18.78265886 -13.6501992 18.78265886 -15 17 C-16.56935594 13.86128812 -16.35201103 11.46144178 -16 8 C-14.125 5.125 -14.125 5.125 -11 3 C-8.34403363 2.51896584 -5.8066422 2.31409201 -3.109375 2.23828125 C-2.06523437 2.12033203 -2.06523437 2.12033203 -1 2 C-0.67 1.34 -0.34 0.68 0 0 Z " fill="#404445" transform="translate(454,381)"/>
<path d="M0 0 C5.5 -0.36666667 5.5 -0.36666667 7.875 1.375 C9 3 9 3 9 5 C12.11332248 4.33131686 12.11332248 4.33131686 13.1875 1.9375 C13.455625 1.298125 13.72375 0.65875 14 0 C14.37526805 6.50464618 14.37526805 6.50464618 12.4375 9.0625 C10.63727613 11.03677501 10.63727613 11.03677501 11.3125 14.25 C11.6528125 15.61125 11.6528125 15.61125 12 17 C8 17 8 17 5 16 C4.34 16.33 3.68 16.66 3 17 C-1.67181016 17.41527201 -4.17508513 16.69993991 -8 14 C-7.67 12.35 -7.34 10.7 -7 9 C-6.29875 9.144375 -5.5975 9.28875 -4.875 9.4375 C-1.92443859 10.01478375 1.03270151 10.51695141 4 11 C2.02 8.36 0.04 5.72 -2 3 C-1.34 2.67 -0.68 2.34 0 2 C0 1.34 0 0.68 0 0 Z " fill="#484C4D" transform="translate(320,408)"/>
<path d="M0 0 C3.8425303 0.72047443 5.45767292 1.57152696 8 4.5625 C8.71730941 7.3854596 8.71730941 9.7395404 8 12.5625 C5.42627616 15.59041041 3.84753406 16.42412709 -0.0625 17.0625 C-3 16.5625 -3 16.5625 -5.3125 15 C-7.58571574 11.71646616 -8.07003547 9.55452191 -8 5.5625 C-5.59321321 2.13465214 -4.14162899 0.77655544 0 0 Z " fill="#4D5253" transform="translate(453,513.4375)"/>
<path d="M0 0 C3.8425303 0.72047443 5.45767292 1.57152696 8 4.5625 C8.71730941 7.3854596 8.71730941 9.7395404 8 12.5625 C5.42627616 15.59041041 3.84753406 16.42412709 -0.0625 17.0625 C-3 16.5625 -3 16.5625 -5.3125 15 C-7.58571574 11.71646616 -8.07003547 9.55452191 -8 5.5625 C-5.59321321 2.13465214 -4.14162899 0.77655544 0 0 Z " fill="#4D5253" transform="translate(1272,511.4375)"/>
<path d="M0 0 C2.33512959 0.32050798 4.66822025 0.65596692 7 1 C8.051875 0.95875 9.10375 0.9175 10.1875 0.875 C13.44883539 1.01994824 14.63932103 1.82091172 17 4 C16.67 5.32 16.34 6.64 16 8 C11.545 7.01 11.545 7.01 7 6 C8.051875 7.60875 8.051875 7.60875 9.125 9.25 C10.2421875 11.17578125 10.2421875 11.17578125 11 13 C10.25 15.4375 10.25 15.4375 9 17 C6.1875 16.875 6.1875 16.875 3 16 C0.56650252 12.34975379 0 10.42295798 0 6 C-0.185625 5.113125 -0.37125 4.22625 -0.5625 3.3125 C-0.706875 2.549375 -0.85125 1.78625 -1 1 C-0.67 0.67 -0.34 0.34 0 0 Z " fill="#434848" transform="translate(304,389)"/>
<path d="M0 0 C1.32 0.66 2.64 1.32 4 2 C3.773125 2.763125 3.54625 3.52625 3.3125 4.3125 C3.1578125 5.6428125 3.1578125 5.6428125 3 7 C3.4846875 7.45375 3.969375 7.9075 4.46875 8.375 C6 10 6 10 6.29296875 12.26171875 C6.25816406 13.06222656 6.22335937 13.86273438 6.1875 14.6875 C6.16042969 15.49574219 6.13335937 16.30398438 6.10546875 17.13671875 C6.07066406 17.75160156 6.03585937 18.36648438 6 19 C5.01 19.33 4.02 19.66 3 20 C2.34 19.67 1.68 19.34 1 19 C0.59270772 16.67843403 0.25561323 14.3431213 0 12 C-0.66 12 -1.32 12 -2 12 C-3.32 14.31 -4.64 16.62 -6 19 C-6.66 17.68 -7.32 16.36 -8 15 C-8.66 15 -9.32 15 -10 15 C-10.6875 12.6875 -10.6875 12.6875 -11 10 C-10 8.1875 -10 8.1875 -8 7 C-4.3125 6.8125 -4.3125 6.8125 -1 7 C-0.67 6.34 -0.34 5.68 0 5 C-0.66 4.34 -1.32 3.68 -2 3 C-1.34 2.01 -0.68 1.02 0 0 Z " fill="#434747" transform="translate(454,381)"/>
<path d="M0 0 C0.66 0.33 1.32 0.66 2 1 C1.67 3.97 1.34 6.94 1 10 C1.66 10.33 2.32 10.66 3 11 C2.67 11.66 2.34 12.32 2 13 C1.77721336 14.36972529 1.5931895 15.74603588 1.4375 17.125 C1.293125 18.40375 1.14875 19.6825 1 21 C-0.32 20.67 -1.64 20.34 -3 20 C-3 18.35 -3 16.7 -3 15 C-4.36125 14.938125 -4.36125 14.938125 -5.75 14.875 C-9 14 -9 14 -11.375 11.25 C-12.9631942 8.0736116 -13.40801001 6.46808506 -13 3 C-11.35 3 -9.7 3 -8 3 C-7.5875 3.969375 -7.175 4.93875 -6.75 5.9375 C-6.1725 6.948125 -5.595 7.95875 -5 9 C-3.68 9.33 -2.36 9.66 -1 10 C-0.67 6.7 -0.34 3.4 0 0 Z " fill="#494F50" transform="translate(380,375)"/>
<path d="M0 0 C2 1.625 2 1.625 3 4 C2.875 7.125 2.875 7.125 2 10 C-1.46923881 12.31282587 -2.92205575 12.42478586 -7 12 C-8.875 10.875 -8.875 10.875 -10 9 C-10.38976435 5.88188517 -10.50422245 3.88980433 -8.9375 1.125 C-5.85928089 -0.66235303 -3.47093932 -0.43386742 0 0 Z " fill="#EFEFEE" transform="translate(391,428)"/>
<path d="M0 0 C2 1.625 2 1.625 3 4 C2.875 7.125 2.875 7.125 2 10 C-1.46923881 12.31282587 -2.92205575 12.42478586 -7 12 C-8.875 10.875 -8.875 10.875 -10 9 C-10.38976435 5.88188517 -10.50422245 3.88980433 -8.9375 1.125 C-5.85928089 -0.66235303 -3.47093932 -0.43386742 0 0 Z " fill="#EFEFEE" transform="translate(1210,426)"/>
<path d="M0 0 C1.32 1.32 2.64 2.64 4 4 C1.93194586 8.55980717 -0.93927689 12.05191502 -5 15 C-8.9375 15.4375 -8.9375 15.4375 -12 15 C-11.40411325 11.79710873 -10.83507982 9.62100216 -8.15625 7.62890625 C-6.74820536 6.81009768 -5.32106805 6.02305366 -3.875 5.2734375 C-1.66929934 3.77539914 -0.98867775 2.44079819 0 0 Z " fill="#EFF0EE" transform="translate(399,438)"/>
<path d="M0 0 C1.32 1.32 2.64 2.64 4 4 C1.93194586 8.55980717 -0.93927689 12.05191502 -5 15 C-8.9375 15.4375 -8.9375 15.4375 -12 15 C-11.40411325 11.79710873 -10.83507982 9.62100216 -8.15625 7.62890625 C-6.74820536 6.81009768 -5.32106805 6.02305366 -3.875 5.2734375 C-1.66929934 3.77539914 -0.98867775 2.44079819 0 0 Z " fill="#EFF0EE" transform="translate(1218,436)"/>
<path d="M0 0 C3.625 0.375 3.625 0.375 7 1 C8.33359073 7.42548263 8.33359073 7.42548263 6.875 9.9375 C4.33639987 11.37604008 2.87213496 11.50262362 0 11 C-1.875 9.3125 -1.875 9.3125 -3 7 C-2.75925978 3.62963689 -2.41201979 2.41201979 0 0 Z " fill="#E8E9E8" transform="translate(408,428)"/>
<path d="M0 0 C3.625 0.375 3.625 0.375 7 1 C8.33359073 7.42548263 8.33359073 7.42548263 6.875 9.9375 C4.33639987 11.37604008 2.87213496 11.50262362 0 11 C-1.875 9.3125 -1.875 9.3125 -3 7 C-2.75925978 3.62963689 -2.41201979 2.41201979 0 0 Z " fill="#E8E9E8" transform="translate(1227,426)"/>
<path d="M0 0 C3.63 0 7.26 0 11 0 C11 1.65 11 3.3 11 5 C9 7 9 7 6.625 7.375 C3.19386323 6.8848376 2.08869087 5.70756224 0 3 C0 2.01 0 1.02 0 0 Z " fill="#F0F0F0" transform="translate(673,117)"/>
<path d="M0 0 C0 3.63 0 7.26 0 11 C-4 10 -4 10 -6 8 C-6.37447615 5.07908607 -6.4374512 3.60409928 -4.6875 1.1875 C-3 0 -3 0 0 0 Z " fill="#E3E3E3" transform="translate(625,107)"/>
<path d="M0 0 C3.46464111 0.27173656 4.68165104 0.93690865 7.1875 3.25 C6.8575 4.57 6.5275 5.89 6.1875 7.25 C1.7325 6.26 1.7325 6.26 -2.8125 5.25 C-3.1425 3.93 -3.4725 2.61 -3.8125 1.25 C-2.8125 0.25 -2.8125 0.25 0 0 Z " fill="#404446" transform="translate(313.8125,389.75)"/>
<path d="M0 0 C3.23060419 0.55700072 5.0658223 1.29215122 7 4 C7.1875 6.6875 7.1875 6.6875 7 9 C4.6875 9.3125 4.6875 9.3125 2 9 C0.125 6.75 0.125 6.75 -1 4 C-0.6875 1.6875 -0.6875 1.6875 0 0 Z " fill="#3B3F40" transform="translate(384,356)"/>
<path d="M0 0 C4 2 4 2 5 3 C5.04092937 5.33297433 5.04241723 7.66705225 5 10 C3.35 10.66 1.7 11.32 0 12 C0 8.04 0 4.08 0 0 Z " fill="#F4F4F4" transform="translate(629,127)"/>
<path d="M0 0 C1.5625 1.25 1.5625 1.25 3 3 C2.72963853 5.97397616 2.14553974 6.85446026 0 9 C-2.625 9.125 -2.625 9.125 -5 9 C-3.7508258 5.54074837 -2.32472205 2.85306797 0 0 Z " fill="#E9E9E7" transform="translate(444,404)"/>
<path d="M0 0 C2.475 0.99 2.475 0.99 5 2 C5.125 4.375 5.125 4.375 5 7 C4.34 7.66 3.68 8.32 3 9 C2.01 9 1.02 9 0 9 C0 6.03 0 3.06 0 0 Z " fill="#F5F4F2" transform="translate(381,376)"/>
<path d="M0 0 C2.31 0.33 4.62 0.66 7 1 C7 2.98 7 4.96 7 7 C6.01 7 5.02 7 4 7 C0 2.65714286 0 2.65714286 0 0 Z " fill="#F3F3F1" transform="translate(321,408)"/>
<path d="M0 0 C0 2.97 0 5.94 0 9 C-1.32 8.67 -2.64 8.34 -4 8 C-4.6875 5.6875 -4.6875 5.6875 -5 3 C-3.40083326 0.79162689 -2.76966516 0 0 0 Z " fill="#D3D3D3" transform="translate(378,359)"/>
<path d="M0 0 C1.32 0.33 2.64 0.66 4 1 C2.35 3.64 0.7 6.28 -1 9 C-2.32 8.67 -3.64 8.34 -5 8 C-3.35 5.36 -1.7 2.72 0 0 Z " fill="#4D5252" transform="translate(441,402)"/>
<path d="M0 0 C-1.12451727 2.9719385 -2.22293791 5.33440687 -4 8 C-4.66 8 -5.32 8 -6 8 C-6.6875 5.6875 -6.6875 5.6875 -7 3 C-4.87164172 -0.24854684 -4.06968429 0 0 0 Z " fill="#E5E5E5" transform="translate(450,388)"/>
<path d="M0 0 C0.66 0 1.32 0 2 0 C6 5.41176471 6 5.41176471 6 8 C3.03 7.505 3.03 7.505 0 7 C0 4.69 0 2.38 0 0 Z " fill="#E9E7E3" transform="translate(307,398)"/>
<path d="M0 0 C6.52307692 -0.36923077 6.52307692 -0.36923077 8.9375 1.5 C9.288125 1.995 9.63875 2.49 10 3 C8.02 3.99 8.02 3.99 6 5 C5.34 4.01 4.68 3.02 4 2 C1.94996045 0.80767387 1.94996045 0.80767387 0 0 Z " fill="#373A3C" transform="translate(445,384)"/>
<path d="M0 0 C1.98 0.495 1.98 0.495 4 1 C2.68 3.64 1.36 6.28 0 9 C-0.33 9 -0.66 9 -1 9 C-1.125 2.25 -1.125 2.25 0 0 Z " fill="#555958" transform="translate(448,391)"/>
<path d="M0 0 C1.32 0.66 2.64 1.32 4 2 C3.34 3.32 2.68 4.64 2 6 C0.68 5.01 -0.64 4.02 -2 3 C-1.34 2.01 -0.68 1.02 0 0 Z " fill="#515655" transform="translate(454,381)"/>
<path d="M0 0 C0.33 0 0.66 0 1 0 C1 2.31 1 4.62 1 7 C0.01 6.67 -0.98 6.34 -2 6 C-1.125 1.125 -1.125 1.125 0 0 Z " fill="#FAFAFA" transform="translate(376,361)"/>
</svg>
